# xmcd
#
# Track frame offsets:
#	150
#	18501
#	32269
#	46174
#	65532
#	81596
#	95108
#	108605
#	121011
#	135724
#	147731
#	159116
#	170823
#	183150
#	195247
#	208378
#
# Disc length: 2948 seconds
#
# Revision: 2
# Processed by: cddbd v1.5PL3 Copyright (c) Steve Scherf et al.
# Submitted via: audiograbber 1.83.01
#
DISCID=e20b8210
DTITLE=Various Artist - The Great Dixieland Bands  Disk 3
DYEAR=1900
DGENRE=Dixieland
TTITLE0=George Wettling's Rhythm Kings - Too Marvelous For Words
TTITLE1=George Wettling's Rhythm Kings - How Come You Do Me Like You Do
TTITLE2=George Wettling's Rhythm Kings - I Wish I Could Shimmy Like My Sister K
TTITLE2=ate
TTITLE3=Wild Bill Davidson and His Commodores - Panama
TTITLE4=Eddie Condon's Hot Shots - Thats A Serious Thing
TTITLE5=Eddie Condon and His Band - Rose Room
TTITLE6=Red Nichols and His Five Pennies - Fan It
TTITLE7=Muggsy Spanier and His Ragtime Band - Riverboat Shuffle
TTITLE8=Muggsy Spanier and His Ragtime Band - Relaxin' At The Touro
TTITLE9=Eccentric (That Eccentric Rag) - Eccentric (That Eccentric Rag)
TTITLE10=Jones and Collins Astoria Hot Eight - Astoria Strut
TTITLE11=Original Dixieland Jazz Band - Barn Yard Blues
TTITLE12=Original Dixieland Jazz Band - Bluein' The Blues
TTITLE13=Tony Parenti and His Ragtime Band - Swipesty Cakewalk
TTITLE14=Sidney Bechet and His New Orleans Feetwarmers - Ja Da
TTITLE15=Sidney Bechet and His New Orleans Feetwarmers - High Society
EXTD=
EXTT0=
EXTT1=
EXTT2=
EXTT3=
EXTT4=
EXTT5=
EXTT6=
EXTT7=
EXTT8=
EXTT9=
EXTT10=
EXTT11=
EXTT12=
EXTT13=
EXTT14=
EXTT15=
PLAYORDER=
